<svg version="1.1" id="Layer_1" xmlns="http://www.w3.org/2000/svg" x="0" y="0" viewBox="0 0 1200 476" xml:space="preserve"><style>.st0{fill:#fff}.st1{fill:none;stroke:#fff;stroke-width:49.5678}</style><g id="Logos"><g id="BTCS-logo-type1" transform="translate(2 3)"><g id="Text" transform="translate(542.281 37.54)"><g id="Bitcoin-text" transform="translate(4.802)"><g id="Group-2"><path id="Path" class="st0" d="M513.4 26.5c8 0 15.3-5.1 15.3-12.6 0-8-7-13.6-15.3-13.6-8.5 0-15.1 5.6-15.1 13.6.1 7.5 6.6 12.6 15.1 12.6"/><path id="Rectangle" class="st0" d="M501.8 50.8h22.8v101.8h-22.8z"/><path id="Path_1_" class="st0" d="M611.5 48.1c-15.1 0-27 4.1-38.4 15.3l-21.4-12.6v101.8h22.8V86.3c7-10.7 19.7-18.2 30.4-18.2 16.8 0 23.3 6.1 23.3 29.9v54.7h22.3V93.3c.1-30.8-14.4-45.2-39-45.2"/><path id="Path_2_" class="st0" d="M323.5 154.5c12.6 0 24.8-1.9 34.5-6.1v-20.2c-13.6 6.6-22.3 8-31.8 8-17.7 0-38.4-12.1-38.4-34.5 0-23.8 18.2-34.5 38.4-34.5 9.2 0 20.2 1.9 29.9 7.5V54.2c-8.5-4.1-19.2-6.1-28.4-6.1-36.4 0-63.4 21.9-63.4 52.7-.1 37.5 31.5 53.7 59.2 53.7"/><path id="Shape" class="st0" d="M424.3 154.5c34 0 57.3-21.4 57.3-53.2s-23.3-53.2-57.3-53.2c-33.3 0-57.3 21.4-57.3 53.2.2 32.1 24 53.2 57.3 53.2m0-86.5c20.9 0 34.5 12.6 34.5 33.5 0 20.2-13.6 33.5-34.5 33.5-20.6 0-34-12.6-34-33.5 0-20.3 13.3-33.5 34-33.5"/><path id="Rectangle_1_" class="st0" d="M138.7 50.8h22.8v101.8h-22.8z"/><path id="Shape_1_" class="st0" d="M84 79c11.2-7 21.9-18.2 21.9-33.5 0-20.2-14.6-35-46.6-35H0v141.9h60.7c31.8 0 53.2-13.6 53.2-41.1 0-17-11.2-27.7-29.9-32.3zM21.9 30.9h32.8c16.3 0 27 7 27 20.2 0 14.1-11.2 21.4-25.3 21.4H21.9V30.9zm37.8 100.8H21.9V90.6h32.8c24.3 0 35 5.6 35 19.7-.1 12.9-8.6 21.4-30 21.4z"/><path id="Path_3_" class="st0" d="M251.1 134.9c-4.6 1-9.7 1.5-13.6 1.5-8 0-14.1-2.9-14.1-14.1V68h27V50.8h-27.2v-26l-22.8 2.4v23.3h-17.2v17.3h17.2v57.3c0 20.2 11.7 30.4 29.4 30.4 4.1 0 12.1 0 21.4-2.9v-17.7z"/><path id="Path_4_" class="st0" d="M149.8 26.5c8.5 0 15.1-5.1 15.1-12.6 0-8-6.6-13.6-15.1-13.6-8 0-15.3 5.6-15.3 13.6.3 7.5 7.3 12.6 15.3 12.6"/></g></g><g id="Suisse-text" transform="translate(0 229.744)"><g id="Group-3"><path id="Path_5_" class="st0" d="M327.3 77.6c0-8 10.7-10.7 22.3-10.7 14.1 0 31.3 4.6 39.1 9.2V56c-10.2-4.6-25.3-7.5-39.1-7.5-26.2 0-46.1 7.5-46.1 30.9 0 16.3 12.6 25.3 40.1 30.4 14.1 2.4 27.4 4.6 27.4 14.1 0 10.2-10.2 12.1-22.3 12.1-15.3 0-34.5-5.1-42-9.2V147c9.7 4.1 25.3 7.5 41 7.5 24.3 0 47.6-7.5 47.6-33-.2-35.4-68-23.7-68-43.9"/><path id="Shape_2_" class="st0" d="M565.3 48.2c-30.4 0-56.1 21.4-56.1 52.7 0 32.3 24.3 53.7 59.3 53.7 14.6 0 29.9-1.9 41-7.5v-19.7c-12.6 6.6-24.3 8.5-36.4 8.5-18.7 0-38.6-9.7-40.1-26.2h82.6c.5-3.6.5-7.5.5-12.1-.3-27.7-18.5-49.4-50.8-49.4zm-32.3 44c2.4-16.3 16.8-26.2 32.3-26.2 13.6 0 26.2 8.7 28.4 26.2H533z"/><path id="Path_6_" class="st0" d="M269.5.1c-8 0-15.1 5.6-15.1 13.6 0 7.5 7 12.6 15.1 12.6s15.3-5.1 15.3-12.6c0-8-7-13.6-15.3-13.6"/><path id="Path_7_" class="st0" d="M206.9 117.5c-6.6 10.2-19.7 18.7-30.8 18.7-16.3 0-21.9-7.5-21.9-30.4V50.7h-22.8V111c0 24.3 7 44.5 35.9 44.5 12.6 0 25.7-1.5 40.1-14.6l1.5 11.7h20.6V50.7h-22.8v66.8h.2z"/><path id="Path_8_" class="st0" d="M64.5 73.5c-27.9-7-38.4-12.6-38.4-25.8 0-11.2 9.2-18.7 25.7-18.7 14.8 0 31.8 5.6 47.1 14.8V19.1c-13-7.1-29.7-11.7-47-11.7C22 7.4.2 22.2.2 50.4c0 27.9 21.1 34.5 49.5 41.5 28.9 7 35.9 13.1 35.9 23.8 0 12.6-10.7 18.7-27.9 18.7-18.7 0-38.4-7-55.1-17.7v25.8c13.6 8.5 38.4 13.6 54.6 13.6 31.8 0 54.2-11.7 54.2-43.5.3-23.3-18-31.6-46.9-39.1"/><path id="Rectangle_2_" class="st0" d="M258.6 50.7h22.8v101.8h-22.8z"/><path id="Path_9_" class="st0" d="M430.1 77.6c0-8 10.7-10.7 22.3-10.7 14.1 0 31.3 4.6 39.1 9.2V56c-10.2-4.6-25.3-7.5-39.1-7.5-26.2 0-46.1 7.5-46.1 30.9 0 16.3 12.6 25.3 40.1 30.4 14.1 2.4 27.4 4.6 27.4 14.1 0 10.2-10.2 12.1-22.3 12.1-15.3 0-34.5-5.1-42-9.2V147c9.7 4.1 25.3 7.5 41 7.5 24.3 0 47.6-7.5 47.6-33 0-35.4-68-23.7-68-43.9"/></g></g></g><g transform="translate(-2.1 -2.403)" id="BTCS-Icon"><g id="XMLID_7_"><path id="Path-2" class="st1" d="M140.8.2v179.2H25.5V63.7h307.3c20.5-1 34.3.3 41.5 3.7 10.2 5 14.5 8.5 20.4 17 9.6 13.8 9.1 34 9 38.7-.1 4.3.7 18.4-6.5 31.5-5.8 10.6-9.6 14.4-22.9 21.9-9.2 2.3-23.1 3.3-41.5 2.9h-76.7V.2"/><path id="Path-2_1_" class="st1" d="M140.9 474.5V295.4H25.6v115.7h307.3c20.5 1 34.3-.3 41.5-3.7 10.2-5 14.5-8.5 20.4-17 9.6-13.8 9.1-34 9-38.7-.1-4.3.7-18.4-6.5-31.5-5.8-10.6-9.6-14.4-22.9-21.9-9.2-2.3-23.1-3.3-41.5-2.9h-76.7v179.2"/></g><g id="shadows" transform="translate(52.078 .285)" opacity=".47"><linearGradient id="Path_18_" gradientUnits="userSpaceOnUse" x1="46.458" y1="487.397" x2="47.458" y2="487.397" gradientTransform="matrix(63.8876 0 0 -49.9113 -2967.964 24737.51)"><stop offset="0" stop-color="#9a9ca0" stop-opacity="0"/><stop offset=".051" stop-color="#8e9194" stop-opacity=".043"/><stop offset=".264" stop-color="#64666a" stop-opacity=".219"/><stop offset=".47" stop-color="#424549" stop-opacity=".39"/><stop offset=".666" stop-color="#2a2d31" stop-opacity=".552"/><stop offset=".847" stop-color="#1c1f23" stop-opacity=".703"/><stop offset="1" stop-color="#171a1e" stop-opacity=".83"/></linearGradient><path id="Path_10_" fill-rule="evenodd" clip-rule="evenodd" fill="url(#Path_18_)" d="M64 385.9v49.9H.1v-49.9z"/><linearGradient id="Path_19_" gradientUnits="userSpaceOnUse" x1="45.591" y1="487.397" x2="46.591" y2="487.397" gradientTransform="matrix(41.1214 0 0 -49.9113 -1736.67 24737.51)"><stop offset="0" stop-color="#9a9ca0" stop-opacity="0"/><stop offset=".051" stop-color="#8e9194" stop-opacity=".043"/><stop offset=".264" stop-color="#64666a" stop-opacity=".219"/><stop offset=".47" stop-color="#424549" stop-opacity=".39"/><stop offset=".666" stop-color="#2a2d31" stop-opacity=".552"/><stop offset=".847" stop-color="#1c1f23" stop-opacity=".703"/><stop offset="1" stop-color="#171a1e" stop-opacity=".83"/></linearGradient><path id="Path_11_" fill-rule="evenodd" clip-rule="evenodd" fill="url(#Path_19_)" d="M179.2 385.9v49.9h-41.1v-49.9z"/><linearGradient id="Path_20_" gradientUnits="userSpaceOnUse" x1="46.591" y1="487.397" x2="45.591" y2="487.397" gradientTransform="matrix(41.1214 0 0 -49.9113 -1761.23 24737.51)"><stop offset="0" stop-color="#9a9ca0" stop-opacity="0"/><stop offset=".051" stop-color="#8e9194" stop-opacity=".043"/><stop offset=".264" stop-color="#64666a" stop-opacity=".219"/><stop offset=".47" stop-color="#424549" stop-opacity=".39"/><stop offset=".666" stop-color="#2a2d31" stop-opacity=".552"/><stop offset=".847" stop-color="#1c1f23" stop-opacity=".703"/><stop offset="1" stop-color="#171a1e" stop-opacity=".83"/></linearGradient><path id="Path_12_" fill-rule="evenodd" clip-rule="evenodd" fill="url(#Path_20_)" d="M113.5 435.8v-49.9h41.2v49.9z"/><linearGradient id="Path_21_" gradientUnits="userSpaceOnUse" x1="47.458" y1="487.397" x2="46.458" y2="487.397" gradientTransform="matrix(63.8876 0 0 -49.9113 -2738.964 24737.51)"><stop offset="0" stop-color="#9a9ca0" stop-opacity="0"/><stop offset=".051" stop-color="#8e9194" stop-opacity=".043"/><stop offset=".264" stop-color="#64666a" stop-opacity=".219"/><stop offset=".47" stop-color="#424549" stop-opacity=".39"/><stop offset=".666" stop-color="#2a2d31" stop-opacity=".552"/><stop offset=".847" stop-color="#1c1f23" stop-opacity=".703"/><stop offset="1" stop-color="#171a1e" stop-opacity=".83"/></linearGradient><path id="Path_13_" fill-rule="evenodd" clip-rule="evenodd" fill="url(#Path_21_)" d="M229.1 435.8v-49.9H293v49.9z"/><linearGradient id="Path_22_" gradientUnits="userSpaceOnUse" x1="46.516" y1="486.946" x2="46.516" y2="487.946" gradientTransform="matrix(49.8295 0 0 -64.1065 -2229.219 31368.861)"><stop offset="0" stop-color="#fff" stop-opacity="0"/><stop offset="0" stop-color="#9a9ca0" stop-opacity="0"/><stop offset=".051" stop-color="#8e9194" stop-opacity=".043"/><stop offset=".264" stop-color="#64666a" stop-opacity=".219"/><stop offset=".47" stop-color="#424549" stop-opacity=".39"/><stop offset=".666" stop-color="#2a2d31" stop-opacity=".552"/><stop offset=".847" stop-color="#1c1f23" stop-opacity=".703"/><stop offset="1" stop-color="#171a1e" stop-opacity=".83"/></linearGradient><path id="Path_14_" fill-rule="evenodd" clip-rule="evenodd" fill="url(#Path_22_)" d="M63.7 88.3h49.9v64.1H63.7z"/><linearGradient id="Path_23_" gradientUnits="userSpaceOnUse" x1="46.505" y1="486.946" x2="46.505" y2="487.946" gradientTransform="matrix(49.5449 0 0 -64.1066 -2100.015 31368.613)"><stop offset="0" stop-color="#fff" stop-opacity="0"/><stop offset="0" stop-color="#9a9ca0" stop-opacity="0"/><stop offset=".051" stop-color="#8e9194" stop-opacity=".043"/><stop offset=".264" stop-color="#64666a" stop-opacity=".219"/><stop offset=".47" stop-color="#424549" stop-opacity=".39"/><stop offset=".666" stop-color="#2a2d31" stop-opacity=".552"/><stop offset=".847" stop-color="#1c1f23" stop-opacity=".703"/><stop offset="1" stop-color="#171a1e" stop-opacity=".83"/></linearGradient><path id="Path_15_" fill-rule="evenodd" clip-rule="evenodd" fill="url(#Path_23_)" d="M179.3 88.1h49.5v64.1h-49.5z"/><linearGradient id="Path_24_" gradientUnits="userSpaceOnUse" x1="46.528" y1="487.832" x2="46.528" y2="486.832" gradientTransform="matrix(50.1141 0 0 -38.481 -2127.631 18772.266)"><stop offset="0" stop-color="#fff" stop-opacity="0"/><stop offset=".001" stop-color="#9a9ca0" stop-opacity=".11"/><stop offset=".052" stop-color="#8e9194" stop-opacity=".147"/><stop offset=".264" stop-color="#64666a" stop-opacity=".299"/><stop offset=".47" stop-color="#424549" stop-opacity=".448"/><stop offset=".666" stop-color="#2a2d31" stop-opacity=".589"/><stop offset=".847" stop-color="#1c1f23" stop-opacity=".72"/><stop offset="1" stop-color="#171a1e" stop-opacity=".83"/></linearGradient><path id="Path_16_" fill-rule="evenodd" clip-rule="evenodd" fill="url(#Path_24_)" d="M179 0h50.1v38.5H179z"/><linearGradient id="Path_25_" gradientUnits="userSpaceOnUse" x1="46.516" y1="487.821" x2="46.516" y2="486.821" gradientTransform="matrix(49.8295 0 0 -37.0558 -2229.219 18078.014)"><stop offset="0" stop-color="#fff" stop-opacity="0"/><stop offset=".001" stop-color="#9a9ca0" stop-opacity=".11"/><stop offset=".052" stop-color="#8e9194" stop-opacity=".147"/><stop offset=".264" stop-color="#64666a" stop-opacity=".3"/><stop offset=".47" stop-color="#424549" stop-opacity=".448"/><stop offset=".666" stop-color="#2a2d31" stop-opacity=".589"/><stop offset=".847" stop-color="#1c1f23" stop-opacity=".72"/><stop offset="1" stop-color="#171a1e" stop-opacity=".83"/></linearGradient><path id="Path_17_" fill-rule="evenodd" clip-rule="evenodd" fill="url(#Path_25_)" d="M63.7 1.4h49.8v37.1H63.7z"/></g></g></g></g></svg>