<?xml version="1.0" encoding="utf-8"?>
<!-- Generator: Adobe Illustrator 24.2.1, SVG Export Plug-In . SVG Version: 6.00 Build 0)  -->
<svg version="1.1" id="Layer_1" xmlns="http://www.w3.org/2000/svg" xmlns:xlink="http://www.w3.org/1999/xlink" x="0px" y="0px"
	 viewBox="0 0 1200 476" style="enable-background:new 0 0 1200 476;" xml:space="preserve">
<style type="text/css">
	.st0{fill:#FFFFFF;}
	.st1{fill:none;stroke:#FFFFFF;stroke-width:49.5678;}
	.st2{opacity:0.47;}
	.st3{fill-rule:evenodd;clip-rule:evenodd;fill:url(#Path_18_);}
	.st4{fill-rule:evenodd;clip-rule:evenodd;fill:url(#Path_19_);}
	.st5{fill-rule:evenodd;clip-rule:evenodd;fill:url(#Path_20_);}
	.st6{fill-rule:evenodd;clip-rule:evenodd;fill:url(#Path_21_);}
	.st7{fill-rule:evenodd;clip-rule:evenodd;fill:url(#Path_22_);}
	.st8{fill-rule:evenodd;clip-rule:evenodd;fill:url(#Path_23_);}
	.st9{fill-rule:evenodd;clip-rule:evenodd;fill:url(#Path_24_);}
	.st10{fill-rule:evenodd;clip-rule:evenodd;fill:url(#Path_25_);}
</style>
<desc>Created with Sketch.</desc>
<g id="Logos">
	<g id="BTCS-logo-type1" transform="translate(2.000000, 3.000000)">
		<g id="Text" transform="translate(542.281062, 37.539936)">
			<g id="Bitcoin-text" transform="translate(4.801603, 0.000000)">
				<g id="Group-2">
					<path id="Path" class="st0" d="M513.4,26.5c8,0,15.3-5.1,15.3-12.6c0-8-7-13.6-15.3-13.6c-8.5,0-15.1,5.6-15.1,13.6
						C498.4,21.4,504.9,26.5,513.4,26.5"/>
					<rect id="Rectangle" x="501.8" y="50.8" class="st0" width="22.8" height="101.8"/>
					<path id="Path_1_" class="st0" d="M611.5,48.1c-15.1,0-27,4.1-38.4,15.3l-21.4-12.6v101.8h22.8V86.3
						c7-10.7,19.7-18.2,30.4-18.2c16.8,0,23.3,6.1,23.3,29.9v54.7h22.3V93.3C650.6,62.5,636.1,48.1,611.5,48.1"/>
					<path id="Path_2_" class="st0" d="M323.5,154.5c12.6,0,24.8-1.9,34.5-6.1v-20.2c-13.6,6.6-22.3,8-31.8,8
						c-17.7,0-38.4-12.1-38.4-34.5c0-23.8,18.2-34.5,38.4-34.5c9.2,0,20.2,1.9,29.9,7.5V54.2c-8.5-4.1-19.2-6.1-28.4-6.1
						c-36.4,0-63.4,21.9-63.4,52.7C264.2,138.3,295.8,154.5,323.5,154.5"/>
					<path id="Shape" class="st0" d="M424.3,154.5c34,0,57.3-21.4,57.3-53.2s-23.3-53.2-57.3-53.2c-33.3,0-57.3,21.4-57.3,53.2
						C367.2,133.4,391,154.5,424.3,154.5 M424.3,68c20.9,0,34.5,12.6,34.5,33.5c0,20.2-13.6,33.5-34.5,33.5c-20.6,0-34-12.6-34-33.5
						C390.3,81.2,403.6,68,424.3,68"/>
					<rect id="Rectangle_1_" x="138.7" y="50.8" class="st0" width="22.8" height="101.8"/>
					<path id="Shape_1_" class="st0" d="M84,79c11.2-7,21.9-18.2,21.9-33.5c0-20.2-14.6-35-46.6-35H0v141.9h60.7
						c31.8,0,53.2-13.6,53.2-41.1C113.9,94.3,102.7,83.6,84,79z M21.9,30.9h32.8c16.3,0,27,7,27,20.2c0,14.1-11.2,21.4-25.3,21.4
						H21.9V30.9z M59.7,131.7H21.9V90.6h32.8c24.3,0,35,5.6,35,19.7C89.6,123.2,81.1,131.7,59.7,131.7z"/>
					<path id="Path_3_" class="st0" d="M251.1,134.9c-4.6,1-9.7,1.5-13.6,1.5c-8,0-14.1-2.9-14.1-14.1V68h27V50.8h-27.2v-26
						l-22.8,2.4v23.3h-17.2v17.3h17.2v57.3c0,20.2,11.7,30.4,29.4,30.4c4.1,0,12.1,0,21.4-2.9V134.9z"/>
					<path id="Path_4_" class="st0" d="M149.8,26.5c8.5,0,15.1-5.1,15.1-12.6c0-8-6.6-13.6-15.1-13.6c-8,0-15.3,5.6-15.3,13.6
						C134.8,21.4,141.8,26.5,149.8,26.5"/>
				</g>
			</g>
			<g id="Suisse-text" transform="translate(0.000000, 229.744409)">
				<g id="Group-3">
					<path id="Path_5_" class="st0" d="M327.3,77.6c0-8,10.7-10.7,22.3-10.7c14.1,0,31.3,4.6,39.1,9.2V56
						c-10.2-4.6-25.3-7.5-39.1-7.5c-26.2,0-46.1,7.5-46.1,30.9c0,16.3,12.6,25.3,40.1,30.4c14.1,2.4,27.4,4.6,27.4,14.1
						c0,10.2-10.2,12.1-22.3,12.1c-15.3,0-34.5-5.1-42-9.2v20.2c9.7,4.1,25.3,7.5,41,7.5c24.3,0,47.6-7.5,47.6-33
						C395.1,86.1,327.3,97.8,327.3,77.6"/>
					<path id="Shape_2_" class="st0" d="M565.3,48.2c-30.4,0-56.1,21.4-56.1,52.7c0,32.3,24.3,53.7,59.3,53.7
						c14.6,0,29.9-1.9,41-7.5v-19.7c-12.6,6.6-24.3,8.5-36.4,8.5c-18.7,0-38.6-9.7-40.1-26.2h82.6c0.5-3.6,0.5-7.5,0.5-12.1
						C615.8,69.9,597.6,48.2,565.3,48.2z M533,92.2c2.4-16.3,16.8-26.2,32.3-26.2c13.6,0,26.2,8.7,28.4,26.2H533z"/>
					<path id="Path_6_" class="st0" d="M269.5,0.1c-8,0-15.1,5.6-15.1,13.6c0,7.5,7,12.6,15.1,12.6s15.3-5.1,15.3-12.6
						C284.8,5.7,277.8,0.1,269.5,0.1"/>
					<path id="Path_7_" class="st0" d="M206.9,117.5c-6.6,10.2-19.7,18.7-30.8,18.7c-16.3,0-21.9-7.5-21.9-30.4V50.7h-22.8v60.3
						c0,24.3,7,44.5,35.9,44.5c12.6,0,25.7-1.5,40.1-14.6l1.5,11.7h20.6V50.7h-22.8v66.8H206.9z"/>
					<path id="Path_8_" class="st0" d="M64.5,73.5c-27.9-7-38.4-12.6-38.4-25.8c0-11.2,9.2-18.7,25.7-18.7
						c14.8,0,31.8,5.6,47.1,14.8V19.1C85.9,12,69.2,7.4,51.9,7.4C22,7.4,0.2,22.2,0.2,50.4c0,27.9,21.1,34.5,49.5,41.5
						c28.9,7,35.9,13.1,35.9,23.8c0,12.6-10.7,18.7-27.9,18.7c-18.7,0-38.4-7-55.1-17.7v25.8c13.6,8.5,38.4,13.6,54.6,13.6
						c31.8,0,54.2-11.7,54.2-43.5C111.7,89.3,93.4,81,64.5,73.5"/>
					<rect id="Rectangle_2_" x="258.6" y="50.7" class="st0" width="22.8" height="101.8"/>
					<path id="Path_9_" class="st0" d="M430.1,77.6c0-8,10.7-10.7,22.3-10.7c14.1,0,31.3,4.6,39.1,9.2V56
						c-10.2-4.6-25.3-7.5-39.1-7.5c-26.2,0-46.1,7.5-46.1,30.9c0,16.3,12.6,25.3,40.1,30.4c14.1,2.4,27.4,4.6,27.4,14.1
						c0,10.2-10.2,12.1-22.3,12.1c-15.3,0-34.5-5.1-42-9.2v20.2c9.7,4.1,25.3,7.5,41,7.5c24.3,0,47.6-7.5,47.6-33
						C498.1,86.1,430.1,97.8,430.1,77.6"/>
				</g>
			</g>
		</g>
		<g id="BTCS-Icon" transform="translate(-2.100701, -2.402556)">
			<g>
				<g id="XMLID_7_">
					<path id="Path-2" class="st1" d="M140.8,0.2v179.2H25.5V63.7h307.3c20.5-1,34.3,0.3,41.5,3.7c10.2,5,14.5,8.5,20.4,17
						c9.6,13.8,9.1,34,9,38.7c-0.1,4.3,0.7,18.4-6.5,31.5c-5.8,10.6-9.6,14.4-22.9,21.9c-9.2,2.3-23.1,3.3-41.5,2.9h-76.7V0.2"/>
					<path id="Path-2_1_" class="st1" d="M140.9,474.5V295.4H25.6v115.7h307.3c20.5,1,34.3-0.3,41.5-3.7c10.2-5,14.5-8.5,20.4-17
						c9.6-13.8,9.1-34,9-38.7c-0.1-4.3,0.7-18.4-6.5-31.5c-5.8-10.6-9.6-14.4-22.9-21.9c-9.2-2.3-23.1-3.3-41.5-2.9h-76.7v179.2"/>
				</g>
				<g id="shadows" transform="translate(52.077649, 0.285045)" class="st2">
					
						<linearGradient id="Path_18_" gradientUnits="userSpaceOnUse" x1="46.4578" y1="487.3971" x2="47.4578" y2="487.3971" gradientTransform="matrix(63.8876 0 0 -49.9113 -2967.9644 24737.5098)">
						<stop  offset="0" style="stop-color:#9A9CA0;stop-opacity:0"/>
						<stop  offset="5.129421e-02" style="stop-color:#8E9194;stop-opacity:4.257419e-02"/>
						<stop  offset="0.2635" style="stop-color:#64666A;stop-opacity:0.2187"/>
						<stop  offset="0.4698" style="stop-color:#424549;stop-opacity:0.3899"/>
						<stop  offset="0.6657" style="stop-color:#2A2D31;stop-opacity:0.5525"/>
						<stop  offset="0.8472" style="stop-color:#1C1F23;stop-opacity:0.7031"/>
						<stop  offset="1" style="stop-color:#171A1E;stop-opacity:0.83"/>
					</linearGradient>
					<polygon id="Path_10_" class="st3" points="64,385.9 64,435.8 0.1,435.8 0.1,385.9 					"/>
					
						<linearGradient id="Path_19_" gradientUnits="userSpaceOnUse" x1="45.5912" y1="487.3971" x2="46.5912" y2="487.3971" gradientTransform="matrix(41.1214 0 0 -49.9113 -1736.6705 24737.5098)">
						<stop  offset="0" style="stop-color:#9A9CA0;stop-opacity:0"/>
						<stop  offset="5.129421e-02" style="stop-color:#8E9194;stop-opacity:4.257419e-02"/>
						<stop  offset="0.2635" style="stop-color:#64666A;stop-opacity:0.2187"/>
						<stop  offset="0.4698" style="stop-color:#424549;stop-opacity:0.3899"/>
						<stop  offset="0.6657" style="stop-color:#2A2D31;stop-opacity:0.5525"/>
						<stop  offset="0.8472" style="stop-color:#1C1F23;stop-opacity:0.7031"/>
						<stop  offset="1" style="stop-color:#171A1E;stop-opacity:0.83"/>
					</linearGradient>
					<polygon id="Path_11_" class="st4" points="179.2,385.9 179.2,435.8 138.1,435.8 138.1,385.9 					"/>
					
						<linearGradient id="Path_20_" gradientUnits="userSpaceOnUse" x1="46.5912" y1="487.3971" x2="45.5912" y2="487.3971" gradientTransform="matrix(41.1214 0 0 -49.9113 -1761.2299 24737.5098)">
						<stop  offset="0" style="stop-color:#9A9CA0;stop-opacity:0"/>
						<stop  offset="5.129421e-02" style="stop-color:#8E9194;stop-opacity:4.257419e-02"/>
						<stop  offset="0.2635" style="stop-color:#64666A;stop-opacity:0.2187"/>
						<stop  offset="0.4698" style="stop-color:#424549;stop-opacity:0.3899"/>
						<stop  offset="0.6657" style="stop-color:#2A2D31;stop-opacity:0.5525"/>
						<stop  offset="0.8472" style="stop-color:#1C1F23;stop-opacity:0.7031"/>
						<stop  offset="1" style="stop-color:#171A1E;stop-opacity:0.83"/>
					</linearGradient>
					<polygon id="Path_12_" class="st5" points="113.5,435.8 113.5,385.9 154.7,385.9 154.7,435.8 					"/>
					
						<linearGradient id="Path_21_" gradientUnits="userSpaceOnUse" x1="47.4578" y1="487.3971" x2="46.4578" y2="487.3971" gradientTransform="matrix(63.8876 0 0 -49.9113 -2738.9639 24737.5098)">
						<stop  offset="0" style="stop-color:#9A9CA0;stop-opacity:0"/>
						<stop  offset="5.129421e-02" style="stop-color:#8E9194;stop-opacity:4.257419e-02"/>
						<stop  offset="0.2635" style="stop-color:#64666A;stop-opacity:0.2187"/>
						<stop  offset="0.4698" style="stop-color:#424549;stop-opacity:0.3899"/>
						<stop  offset="0.6657" style="stop-color:#2A2D31;stop-opacity:0.5525"/>
						<stop  offset="0.8472" style="stop-color:#1C1F23;stop-opacity:0.7031"/>
						<stop  offset="1" style="stop-color:#171A1E;stop-opacity:0.83"/>
					</linearGradient>
					<polygon id="Path_13_" class="st6" points="229.1,435.8 229.1,385.9 293,385.9 293,435.8 					"/>
					
						<linearGradient id="Path_22_" gradientUnits="userSpaceOnUse" x1="46.5162" y1="486.9459" x2="46.5162" y2="487.9459" gradientTransform="matrix(49.8295 0 0 -64.1065 -2229.2188 31368.8613)">
						<stop  offset="0" style="stop-color:#FFFFFF;stop-opacity:0"/>
						<stop  offset="0" style="stop-color:#9A9CA0;stop-opacity:0"/>
						<stop  offset="5.129421e-02" style="stop-color:#8E9194;stop-opacity:4.257419e-02"/>
						<stop  offset="0.2635" style="stop-color:#64666A;stop-opacity:0.2187"/>
						<stop  offset="0.4698" style="stop-color:#424549;stop-opacity:0.3899"/>
						<stop  offset="0.6657" style="stop-color:#2A2D31;stop-opacity:0.5525"/>
						<stop  offset="0.8472" style="stop-color:#1C1F23;stop-opacity:0.7031"/>
						<stop  offset="1" style="stop-color:#171A1E;stop-opacity:0.83"/>
					</linearGradient>
					<polygon id="Path_14_" class="st7" points="63.7,88.3 113.6,88.3 113.6,152.4 63.7,152.4 					"/>
					
						<linearGradient id="Path_23_" gradientUnits="userSpaceOnUse" x1="46.5047" y1="486.9459" x2="46.5047" y2="487.9459" gradientTransform="matrix(49.5449 0 0 -64.1066 -2100.0146 31368.6133)">
						<stop  offset="0" style="stop-color:#FFFFFF;stop-opacity:0"/>
						<stop  offset="0" style="stop-color:#9A9CA0;stop-opacity:0"/>
						<stop  offset="5.129421e-02" style="stop-color:#8E9194;stop-opacity:4.257419e-02"/>
						<stop  offset="0.2635" style="stop-color:#64666A;stop-opacity:0.2187"/>
						<stop  offset="0.4698" style="stop-color:#424549;stop-opacity:0.3899"/>
						<stop  offset="0.6657" style="stop-color:#2A2D31;stop-opacity:0.5525"/>
						<stop  offset="0.8472" style="stop-color:#1C1F23;stop-opacity:0.7031"/>
						<stop  offset="1" style="stop-color:#171A1E;stop-opacity:0.83"/>
					</linearGradient>
					<polygon id="Path_15_" class="st8" points="179.3,88.1 228.8,88.1 228.8,152.2 179.3,152.2 					"/>
					
						<linearGradient id="Path_24_" gradientUnits="userSpaceOnUse" x1="46.5276" y1="487.8317" x2="46.5276" y2="486.8317" gradientTransform="matrix(50.1141 0 0 -38.481 -2127.6313 18772.2656)">
						<stop  offset="0" style="stop-color:#FFFFFF;stop-opacity:0"/>
						<stop  offset="6.009616e-04" style="stop-color:#9A9CA0;stop-opacity:0.1096"/>
						<stop  offset="5.186434e-02" style="stop-color:#8E9194;stop-opacity:0.1466"/>
						<stop  offset="0.264" style="stop-color:#64666A;stop-opacity:0.2995"/>
						<stop  offset="0.4701" style="stop-color:#424549;stop-opacity:0.448"/>
						<stop  offset="0.6659" style="stop-color:#2A2D31;stop-opacity:0.5892"/>
						<stop  offset="0.8473" style="stop-color:#1C1F23;stop-opacity:0.7199"/>
						<stop  offset="1" style="stop-color:#171A1E;stop-opacity:0.83"/>
					</linearGradient>
					<rect id="Path_16_" x="179" y="0" class="st9" width="50.1" height="38.5"/>
					
						<linearGradient id="Path_25_" gradientUnits="userSpaceOnUse" x1="46.5162" y1="487.8206" x2="46.5162" y2="486.8206" gradientTransform="matrix(49.8295 0 0 -37.0558 -2229.2188 18078.0137)">
						<stop  offset="0" style="stop-color:#FFFFFF;stop-opacity:0"/>
						<stop  offset="6.009616e-04" style="stop-color:#9A9CA0;stop-opacity:0.11"/>
						<stop  offset="5.186434e-02" style="stop-color:#8E9194;stop-opacity:0.1469"/>
						<stop  offset="0.264" style="stop-color:#64666A;stop-opacity:0.2997"/>
						<stop  offset="0.4701" style="stop-color:#424549;stop-opacity:0.4482"/>
						<stop  offset="0.6659" style="stop-color:#2A2D31;stop-opacity:0.5893"/>
						<stop  offset="0.8473" style="stop-color:#1C1F23;stop-opacity:0.72"/>
						<stop  offset="1" style="stop-color:#171A1E;stop-opacity:0.83"/>
					</linearGradient>
					<rect id="Path_17_" x="63.7" y="1.4" class="st10" width="49.8" height="37.1"/>
				</g>
			</g>
		</g>
	</g>
</g>
</svg>
