<?xml version="1.0" encoding="utf-8"?>
<!-- Generator: Adobe Illustrator 24.1.2, SVG Export Plug-In . SVG Version: 6.00 Build 0)  -->
<svg version="1.1" id="Layer_1" xmlns="http://www.w3.org/2000/svg" xmlns:xlink="http://www.w3.org/1999/xlink" x="0px" y="0px"
	 viewBox="0 0 100 100" style="enable-background:new 0 0 100 100;" xml:space="preserve" fill="#fff">
<path d="M98.3,39.1v31.5c0,5-3.6,9.2-8.3,10.2v9.3c0,2.2-1.8,3.9-3.9,3.9c-1,0-2-0.4-2.8-1.1L71.5,81.1H35.8
	c-5.6,0-10.1-4.4-10.4-9.8l6-6h1.2v5.4c0,1.7,1.4,3.2,3.2,3.2h38.7l8.2,8.2v-8.2h5.2c1.7,0,3.2-1.4,3.2-3.2V39.1
	c0-1.7-1.4-3.2-3.2-3.2h-6.3v-7.3h6.3C93.6,28.7,98.3,33.4,98.3,39.1z M1.7,47.9V16.4C1.7,10.6,6.4,6,12.1,6h52
	c5.8,0,10.4,4.7,10.4,10.4v31.5c0,5.8-4.7,10.4-10.4,10.4H28.5L16.7,70.2C16,70.9,15,71.3,14,71.3s-1.9-0.4-2.7-1.1
	s-1.2-1.8-1.2-2.9V58C5.3,57.1,1.7,52.9,1.7,47.9z"/>
</svg>
